# xmcd
#
# Track frame offsets:
#	150
#	19810
#	35183
#	50953
#	66295
#	79235
#	90965
#	106530
#	125675
#	142145
#	161108
#	182055
#	194295
#	214778
#	227600
#	255615
#	271253
#	286893
#
# Disc length: 4030 seconds
#
# Revision: 1
# Processed by: cddbd v1.4PL0 Copyright (c) Steve Scherf et al.
# Submitted via: audiograbber 1.80
#
DISCID=0a0fbc12
DTITLE=Buddy Richard - Mis Mas Grandes Exitos
DYEAR=1900
DGENRE=
TTITLE0=Mentira
TTITLE1=Balada De La Tristeza
TTITLE2=Balada De La Tristeza
TTITLE3=Te Necesito
TTITLE4=Si Me Vas Abandonar
TTITLE5=Esperame
TTITLE6=Toma Mi Cariño
TTITLE7=Despidete Con Un Beso
TTITLE8=Guitarra Toca Otra Vez
TTITLE9=Me Quiero Disculpar
TTITLE10=Por Ti
TTITLE11=Ay Amor
TTITLE12=No Quiero Seguir Perdiendo
TTITLE13=Al Final De La Tarde
TTITLE14=Medley
TTITLE15=Angelitos Negros
TTITLE16=Con Mi Bombo Y Mi Chin-Chin
TTITLE17=Quiera Dios
EXTD=
EXTT0=
EXTT1=
EXTT2=
EXTT3=
EXTT4=
EXTT5=
EXTT6=
EXTT7=
EXTT8=
EXTT9=
EXTT10=
EXTT11=
EXTT12=
EXTT13=
EXTT14=
EXTT15=
EXTT16=
EXTT17=
PLAYORDER=
